<?xml version="1.0" encoding="UTF-8" standalone="no"?>
<!-- Created with Inkscape (http://www.inkscape.org/) -->

<svg
   xmlns:dc="http://purl.org/dc/elements/1.1/"
   xmlns:cc="http://creativecommons.org/ns#"
   xmlns:rdf="http://www.w3.org/1999/02/22-rdf-syntax-ns#"
   xmlns:svg="http://www.w3.org/2000/svg"
   xmlns="http://www.w3.org/2000/svg"
   xmlns:sodipodi="http://sodipodi.sourceforge.net/DTD/sodipodi-0.dtd"
   xmlns:inkscape="http://www.inkscape.org/namespaces/inkscape"
   id="svg1"
   sodipodi:docname="icon-36.svg"
   viewBox="0 0 35.942409 35.519394"
   sodipodi:version="0.32"
   version="1.0"
   inkscape:output_extension="org.inkscape.output.svg.inkscape"
   inkscape:version="0.92.4 (5da689c313, 2019-01-14)"
   width="35.94241"
   height="35.519394">
  <defs
     id="defs21">
    <marker
       inkscape:stockid="Arrow1Lstart"
       orient="auto"
       refY="0"
       refX="0"
       id="Arrow1Lstart"
       style="overflow:visible"
       inkscape:isstock="true">
      <path
         id="path4705"
         d="M 0,0 5,-5 -12.5,0 5,5 Z"
         style="fill-rule:evenodd;stroke:#000000;stroke-width:1.00000003pt"
         transform="matrix(0.8,0,0,0.8,10,0)"
         inkscape:connector-curvature="0" />
    </marker>
  </defs>
  <sodipodi:namedview
     id="base"
     bordercolor="#666666"
     inkscape:pageshadow="2"
     inkscape:window-width="1896"
     pagecolor="#ffffff"
     inkscape:grid-bbox="false"
     inkscape:zoom="9.823882"
     inkscape:window-x="4"
     showgrid="false"
     borderopacity="1.0"
     inkscape:cx="40.917694"
     inkscape:cy="19.410823"
     inkscape:window-y="746"
     inkscape:window-height="687"
     inkscape:pageopacity="0.0"
     inkscape:window-maximized="0"
     inkscape:current-layer="svg1" />
  <metadata
     id="metadata18">
    <rdf:RDF>
      <cc:Work>
        <dc:format>image/svg+xml</dc:format>
        <dc:type
           rdf:resource="http://purl.org/dc/dcmitype/StillImage" />
        <cc:license
           rdf:resource="http://creativecommons.org/licenses/publicdomain/" />
        <dc:publisher>
          <cc:Agent
             rdf:about="http://openclipart.org/">
            <dc:title>Openclipart</dc:title>
          </cc:Agent>
        </dc:publisher>
        <dc:title></dc:title>
        <dc:date>2008-02-05T04:11:48</dc:date>
        <dc:description />
        <dc:source>https://openclipart.org/detail/12773/funny-music-note-by-anonymous-12773</dc:source>
        <dc:creator>
          <cc:Agent>
            <dc:title>Anonymous</dc:title>
          </cc:Agent>
        </dc:creator>
        <dc:subject>
          <rdf:Bag>
            <rdf:li>cartoon</rdf:li>
            <rdf:li>music</rdf:li>
            <rdf:li>note</rdf:li>
          </rdf:Bag>
        </dc:subject>
      </cc:Work>
      <cc:License
         rdf:about="http://creativecommons.org/licenses/publicdomain/">
        <cc:permits
           rdf:resource="http://creativecommons.org/ns#Reproduction" />
        <cc:permits
           rdf:resource="http://creativecommons.org/ns#Distribution" />
        <cc:permits
           rdf:resource="http://creativecommons.org/ns#DerivativeWorks" />
      </cc:License>
    </rdf:RDF>
  </metadata>
  <rect
     style="opacity:1;fill:#444444;fill-opacity:1;stroke:#000000;stroke-width:1.53553748;stroke-linejoin:round;stroke-miterlimit:4;stroke-dasharray:none;stroke-opacity:1;paint-order:stroke fill markers"
     id="rect4539"
     width="32.562386"
     height="31.768324"
     x="1.6961219"
     y="1.6839036"
     ry="7.5326962" />
  <path
     id="path923"
     style="fill:#884444;fill-opacity:1;fill-rule:evenodd;stroke:#000000;stroke-width:0.06365677pt"
     d="M 19.068557,7.4274746 29.913601,3.205454 28.708368,12.704494 V 4.2611679 l -9.639811,3.1666049 z"
     inkscape:connector-curvature="0" />
  <path
     id="path925"
     sodipodi:nodetypes="ccccccc"
     style="fill:#884444;fill-opacity:1;fill-rule:evenodd;stroke:#000000;stroke-width:0.06365677pt"
     d="m 27.503818,6.371999 -0.02789,21.446715 -1.126332,0.0161 -0.05101,-19.8536162 -15.665285,4.7233072 v -1.05512 l 16.87052,-5.27768 z"
     inkscape:connector-curvature="0" />
  <path
     id="path926"
     style="fill:#884444;fill-opacity:1;fill-rule:evenodd;stroke:#000000;stroke-width:0.06365677pt"
     d="m 10.633298,12.704793 v 8.444518 h 1.665694 l 0.04897,-9.008717 z"
     inkscape:connector-curvature="0" />
  <ellipse
     id="path928"
     style="fill:#884444;fill-opacity:1;fill-rule:evenodd;stroke:#000000;stroke-width:0.08810381pt"
     transform="matrix(0.92337662,-0.38389533,0.55144095,0.83421393,0,0)"
     cx="-6.2468848"
     cy="23.950005"
     rx="4.9919195"
     ry="2.6706014" />
  <path
     id="path930"
     sodipodi:rx="3.3675468"
     sodipodi:ry="2.474853"
     style="fill:#884444;fill-opacity:1;fill-rule:evenodd;stroke:#000000;stroke-width:0.13724632pt"
     sodipodi:type="arc"
     d="m -32.248163,30.947458 a 3.3675468,2.474853 0 0 1 1.65975,-2.313694 3.3675468,2.474853 0 0 1 3.557594,0.07284 3.3675468,2.474853 0 0 1 1.481887,2.378019"
     sodipodi:open="true"
     transform="matrix(0.80290703,-0.59610428,0.98596512,0.16695145,0,0)"
     sodipodi:cy="30.770475"
     sodipodi:cx="-28.889238"
     sodipodi:end="0.12728049"
     sodipodi:start="3.0700191" />
  <path
     id="path931"
     sodipodi:rx="3.0742798"
     sodipodi:ry="4.7958875"
     style="fill:#884444;fill-opacity:1;fill-rule:evenodd;stroke:#000000;stroke-width:0.1446555pt"
     sodipodi:type="arc"
     d="m -34.494149,23.092041 a 3.0742798,4.7958875 0 0 1 2.554768,0.776374 3.0742798,4.7958875 0 0 1 1.257419,3.555104"
     sodipodi:open="true"
     transform="matrix(0.51752795,-0.8556663,0.97624983,-0.21664782,0,0)"
     sodipodi:cy="27.745047"
     sodipodi:cx="-33.749325"
     sodipodi:end="6.2160926"
     sodipodi:start="4.4676779" />
  <path
     id="path4658"
     style="fill:#884444;fill-opacity:1;fill-rule:evenodd;stroke:#000000;stroke-width:0.06365677pt"
     d="m 12.396934,15.871335 13.901649,-2.110828 v 0.567177 l -13.901649,3.002111 z"
     inkscape:connector-curvature="0" />
  <path
     id="path5281"
     style="fill:#884444;fill-opacity:1;fill-rule:evenodd;stroke:#000000;stroke-width:0.06365677pt"
     d="m 12.298992,12.704793 13.316041,-3.8230318 -0.04897,4.3741248 -0.472706,0.08579 v -0.636881 l -6.024798,1.055714 1.205231,-2.110834 z"
     inkscape:connector-curvature="0" />
  <ellipse
     id="path6524"
     style="fill:#884444;fill-opacity:1;fill-rule:evenodd;stroke:#000000;stroke-width:0.09623849pt"
     transform="matrix(0.90885994,-0.41710143,0.51378977,0.85791612,0,0)"
     cx="4.4168983"
     cy="35.739159"
     rx="5.3052564"
     ry="2.9983232" />
  <path
     id="path6525"
     sodipodi:rx="3.6569335"
     sodipodi:ry="2.5967271"
     style="fill:#884444;fill-opacity:1;fill-rule:evenodd;stroke:#000000;stroke-width:0.14650108pt"
     sodipodi:type="arc"
     d="m -35.413327,47.710875 a 3.6569335,2.5967271 0 0 1 1.802379,-2.427631 3.6569335,2.5967271 0 0 1 3.863312,0.07643 3.6569335,2.5967271 0 0 1 1.609231,2.495125"
     sodipodi:open="true"
     transform="matrix(0.77346403,-0.63384019,0.9829769,0.18372921,0,0)"
     sodipodi:cy="47.525177"
     sodipodi:cx="-31.765757"
     sodipodi:end="0.12728049"
     sodipodi:start="3.0700191" />
  <path
     id="path6526"
     sodipodi:rx="3.4635665"
     sodipodi:ry="5.0425897"
     style="fill:#884444;fill-opacity:1;fill-rule:evenodd;stroke:#000000;stroke-width:0.1574408pt"
     sodipodi:type="arc"
     d="m -47.610604,43.715453 a 3.4635665,5.0425897 0 0 1 2.878271,0.816311 3.4635665,5.0425897 0 0 1 1.416642,3.73798"
     sodipodi:open="true"
     transform="matrix(0.4805204,-0.87698355,0.9712834,-0.23792553,0,0)"
     sodipodi:cy="48.607811"
     sodipodi:cx="-46.771465"
     sodipodi:end="6.2160926"
     sodipodi:start="4.4676779" />
  <path
     style="opacity:1;fill:#290955;fill-opacity:0.06896554;fill-rule:evenodd;stroke:#000000;stroke-width:7.26857138;stroke-linecap:round;stroke-linejoin:miter;stroke-miterlimit:4;stroke-dasharray:7.26857116, 21.80571349;stroke-dashoffset:0;stroke-opacity:0;paint-order:stroke fill markers"
     d="M 4.3708167,25.103164 C 3.7534332,24.95067 3.3485501,24.721593 3.0170286,24.33721 c -0.883761,-1.024678 0.2890181,-2.798712 2.5603306,-3.872946 1.4223487,-0.672713 2.2219267,-0.860314 3.692641,-0.866389 1.1171348,-0.0046 1.2878348,0.0222 1.8471998,0.290229 1.443402,0.691611 1.358116,2.008586 -0.219638,3.391637 -0.673091,0.590028 -2.3041551,1.413126 -3.3060346,1.668352 -0.8218253,0.209358 -2.6454429,0.297161 -3.2207107,0.155071 z m 0.5660839,-0.897961 c 0.4191978,-1.128138 2.6626714,-2.693911 4.9830646,-3.477796 0.9116448,-0.307975 1.4596338,-0.626649 0.8067128,-0.469128 -0.183532,0.04428 -0.384948,0.07343 -0.447593,0.06478 -0.9348978,-0.129084 -1.3393217,-0.126379 -2.0180163,0.0135 -2.5334522,0.522118 -4.865725,2.077027 -4.865725,3.243943 0,0.45635 0.1405821,0.609834 0.7542526,0.823475 0.5970512,0.207856 0.6402655,0.196947 0.7873043,-0.198764 z"
     id="path5398"
     inkscape:connector-curvature="0" />
  <path
     style="opacity:1;fill:#290955;fill-opacity:0.06896554;fill-rule:evenodd;stroke:#000000;stroke-width:7.26857138;stroke-linecap:round;stroke-linejoin:miter;stroke-miterlimit:4;stroke-dasharray:7.26857116, 21.80571349;stroke-dashoffset:0;stroke-opacity:0;paint-order:stroke fill markers"
     d="M 4.3708167,25.095854 C 3.7633441,24.956299 3.3523251,24.725971 3.0170286,24.33721 c -0.8919799,-1.034208 0.271196,-2.794268 2.5603306,-3.874163 1.4187467,-0.669294 2.2218029,-0.857265 3.692641,-0.864338 1.1063358,-0.0053 1.2951788,0.02349 1.8663368,0.284704 0.724655,0.331416 0.987068,0.703724 0.987068,1.400433 0,0.245546 -0.0974,0.632722 -0.216453,0.860386 -0.26409,0.505036 -1.368719,1.521027 -2.0687278,1.902729 -1.751483,0.955051 -3.9990131,1.386228 -5.4674075,1.048893 z m 0.5660839,-0.890651 c 0.4201813,-1.130785 2.6627112,-2.693924 4.9952816,-3.481923 0.4961008,-0.167593 0.9181418,-0.351956 0.9378678,-0.409693 0.02162,-0.06328 -0.08903,-0.07222 -0.27855,-0.02252 -0.172928,0.04535 -0.482053,0.03245 -0.6869418,-0.02866 -0.257662,-0.07685 -0.637192,-0.07344 -1.2308804,0.01107 -2.5480637,0.362711 -5.2783341,2.069218 -5.2783341,3.299128 0,0.464893 0.1377673,0.616747 0.7542526,0.831368 0.5970512,0.207856 0.6402655,0.196947 0.7873043,-0.198764 z"
     id="path5412"
     inkscape:connector-curvature="0" />
  <path
     style="opacity:1;fill:#ffbc82;fill-opacity:1;fill-rule:evenodd;stroke:#000000;stroke-width:7.26857138;stroke-linecap:round;stroke-linejoin:miter;stroke-miterlimit:4;stroke-dasharray:7.26857116, 21.80571349;stroke-dashoffset:0;stroke-opacity:0;paint-order:stroke fill markers"
     d="m 11.9286,20.183621 c -0.137914,-0.162501 -0.477616,-0.38648 -0.754893,-0.497729 l -0.50414,-0.202271 -4.27e-4,-3.348062 -4.28e-4,-3.348061 0.734487,-0.238461 c 0.403967,-0.131154 0.757067,-0.216431 0.784666,-0.189504 0.0276,0.02693 0.03697,1.864839 0.02083,4.084251 l -0.02935,4.035294 z"
     id="path5414"
     inkscape:connector-curvature="0" />
  <path
     style="opacity:1;fill:#ffbc82;fill-opacity:1;fill-rule:evenodd;stroke:#000000;stroke-width:7.26857138;stroke-linecap:round;stroke-linejoin:miter;stroke-miterlimit:4;stroke-dasharray:7.26857116, 21.80571349;stroke-dashoffset:0;stroke-opacity:0;paint-order:stroke fill markers"
     d="M 4.2256906,25.062731 C 3.5033504,24.872973 2.9381751,24.42698 2.7840486,23.925097 2.16914,21.922763 6.2374257,19.356221 9.6928912,19.566543 12.760384,19.75325 13.037086,21.999412 10.214359,23.799624 8.3713055,24.975043 5.8867283,25.49908 4.2256906,25.062731 Z m 0.7569991,-0.960133 c 0.5565728,-1.204161 3.132541,-2.906963 5.3335593,-3.525666 0.353878,-0.09948 0.643415,-0.229812 0.643415,-0.289642 0,-0.06427 -0.103011,-0.0753 -0.251771,-0.02696 -0.138474,0.045 -0.35248,0.06898 -0.475568,0.05329 -0.8319918,-0.106089 -1.9982531,-0.02075 -2.7516564,0.20135 -2.1466923,0.632835 -4.1300843,2.118013 -4.1300843,3.092639 0,0.411512 0.604378,0.832307 1.353759,0.942547 0.036811,0.0054 0.1620671,-0.195988 0.2783464,-0.447561 z"
     id="path5428"
     inkscape:connector-curvature="0" />
  <path
     style="opacity:1;fill:#ffbc82;fill-opacity:1;fill-rule:evenodd;stroke:#000000;stroke-width:7.26857138;stroke-linecap:round;stroke-linejoin:miter;stroke-miterlimit:4;stroke-dasharray:7.26857116, 21.80571349;stroke-dashoffset:0;stroke-opacity:0;paint-order:stroke fill markers"
     d="m 3.9349735,24.062551 c -1.0748544,-0.734499 1.3957082,-2.880873 4.0072059,-3.481378 0.709566,-0.163163 2.0021778,-0.234368 1.8673908,-0.102868 -0.03763,0.03671 -0.448662,0.228013 -0.9134133,0.425123 -1.697752,0.720043 -3.5615718,2.075229 -4.0358838,2.934496 -0.2407221,0.436093 -0.5175118,0.503287 -0.9252996,0.224627 z"
     id="path5430"
     inkscape:connector-curvature="0" />
  <path
     style="opacity:1;fill:#ffbc82;fill-opacity:1;fill-rule:evenodd;stroke:#000000;stroke-width:7.26857138;stroke-linecap:round;stroke-linejoin:miter;stroke-miterlimit:4;stroke-dasharray:7.26857116, 21.80571349;stroke-dashoffset:0;stroke-opacity:0;paint-order:stroke fill markers"
     d="m 19.043459,30.947067 c -1.001421,-0.424613 -0.482544,-1.708095 1.150018,-2.844658 1.317661,-0.917334 2.908131,-1.470789 4.210127,-1.465048 l 0.711187,0.0031 -1.063033,0.519742 c -0.584669,0.285858 -1.390336,0.735304 -1.790372,0.998768 -0.959205,0.631735 -2.255943,1.907177 -2.525859,2.484382 -0.118607,0.253633 -0.240826,0.460498 -0.271598,0.459696 -0.03077,-7.58e-4 -0.219983,-0.07101 -0.42047,-0.156017 z"
     id="path5432"
     inkscape:connector-curvature="0" />
  <path
     style="opacity:1;fill:#ffbc82;fill-opacity:1;fill-rule:evenodd;stroke:#000000;stroke-width:7.26857138;stroke-linecap:round;stroke-linejoin:miter;stroke-miterlimit:4;stroke-dasharray:7.26857116, 21.80571349;stroke-dashoffset:0;stroke-opacity:0;paint-order:stroke fill markers"
     d="m 19.091025,31.943512 c -2.288374,-0.631151 -2.155985,-2.918891 0.271953,-4.699498 3.222914,-2.363628 7.938101,-2.213591 7.932736,0.252418 -0.0034,1.558674 -1.963427,3.384543 -4.530786,4.220648 -1.091752,0.355547 -2.819651,0.462042 -3.673903,0.226432 z m 0.708599,-0.823643 c 0,-0.307206 0.597684,-1.118928 1.298098,-1.76296 1.126391,-1.035724 2.664003,-1.93765 4.272277,-2.506014 0.386541,-0.136604 0.721518,-0.278083 0.744394,-0.314399 0.09586,-0.152176 -2.312196,-0.11955 -3.02151,0.04094 -2.443716,0.552914 -4.882214,2.422415 -4.882214,3.742999 0,0.456891 0.248923,0.724992 0.861617,0.927999 0.516249,0.171053 0.727338,0.13374 0.727338,-0.128565 z"
     id="path5434"
     inkscape:connector-curvature="0" />
  <path
     style="opacity:1;fill:#ffbc82;fill-opacity:1;fill-rule:evenodd;stroke:#000000;stroke-width:7.26857138;stroke-linecap:round;stroke-linejoin:miter;stroke-miterlimit:4;stroke-dasharray:7.26857116, 21.80571349;stroke-dashoffset:0;stroke-opacity:0;paint-order:stroke fill markers"
     d="m 26.905163,26.142992 -0.447594,-0.436665 -0.05595,-8.9131 -0.05595,-8.9130986 -6.825794,2.0626678 c -3.754185,1.1344678 -6.952388,2.0859008 -7.107117,2.1142958 -0.154729,0.0284 -0.578034,0.151222 -0.940678,0.272947 -0.362644,0.121725 -0.676647,0.221319 -0.697785,0.221319 -0.02114,0 -0.03843,-0.194184 -0.03843,-0.431521 v -0.43152 l 0.699364,-0.207524 c 0.38465,-0.114138 4.113302,-1.276734 8.285892,-2.5835458 4.17259,-1.3068124 7.609531,-2.3535811 7.637644,-2.3261531 0.02811,0.027428 0.03826,4.5405749 0.02255,10.0292159 l -0.02856,9.979348 z"
     id="path5436"
     inkscape:connector-curvature="0" />
  <path
     style="opacity:1;fill:#ffbc82;fill-opacity:1;fill-rule:evenodd;stroke:#000000;stroke-width:7.26857138;stroke-linecap:round;stroke-linejoin:miter;stroke-miterlimit:4;stroke-dasharray:7.26857116, 21.80571349;stroke-dashoffset:0;stroke-opacity:0;paint-order:stroke fill markers"
     d="m 12.526239,16.583972 c 0,-0.63483 0.0021,-0.638819 0.363669,-0.700433 0.200018,-0.03408 3.133151,-0.47912 6.518072,-0.988974 3.384924,-0.509854 6.292877,-0.954798 6.462124,-0.988765 0.257334,-0.05164 0.307721,-0.02459 0.307721,0.165257 0,0.124857 -0.02271,0.227013 -0.05047,0.227013 -0.0413,0 -11.494978,2.460469 -13.125545,2.819619 l -0.475567,0.104749 z"
     id="path5438"
     inkscape:connector-curvature="0" />
  <path
     style="opacity:1;fill:#ffbc82;fill-opacity:1;fill-rule:evenodd;stroke:#000000;stroke-width:7.26857138;stroke-linecap:round;stroke-linejoin:miter;stroke-miterlimit:4;stroke-dasharray:7.26857116, 21.80571349;stroke-dashoffset:0;stroke-opacity:0;paint-order:stroke fill markers"
     d="m 19.26762,13.572849 c 0.652577,-1.100269 1.097335,-1.92554 1.058263,-1.963659 -0.02725,-0.02659 -1.367863,0.128522 -2.979139,0.344683 -1.611276,0.216162 -3.007119,0.377618 -3.101873,0.358791 -0.146629,-0.02913 10.940431,-3.2584538 11.177639,-3.2557038 0.04616,5.31e-4 0.08392,0.934372 0.08392,2.0751938 0,1.770972 -0.02454,2.074221 -0.167847,2.074221 -0.104437,0 -0.167848,-0.103105 -0.167848,-0.272924 0,-0.168105 -0.06356,-0.272924 -0.165507,-0.272924 -0.142735,0 -4.561258,0.760578 -5.471378,0.941809 -0.176945,0.03524 -0.296751,0.02197 -0.266234,-0.02949 z"
     id="path5440"
     inkscape:connector-curvature="0" />
  <path
     style="opacity:1;fill:#ffbc82;fill-opacity:1;fill-rule:evenodd;stroke:#000000;stroke-width:2.56982803;stroke-linecap:round;stroke-linejoin:miter;stroke-miterlimit:4;stroke-dasharray:2.56982798, 7.70948395;stroke-dashoffset:0;stroke-opacity:0;paint-order:stroke fill markers"
     d="M 28.757029,7.9697812 C 28.755329,5.8946966 28.747529,4.1969 28.739679,4.1969 c -0.0078,0 -1.603512,0.5216866 -3.545971,1.1593033 -1.942462,0.637617 -3.537876,1.1533236 -3.545367,1.146015 -0.0075,-0.00731 1.82344,-0.7279173 4.068736,-1.6013526 2.245297,-0.873435 4.090584,-1.5800385 4.100638,-1.5702296 0.01714,0.016722 -1.014233,8.2899849 -1.043858,8.3734289 -0.0075,0.02123 -0.01512,-1.6592 -0.01683,-3.7342838 z"
     id="path5442"
     inkscape:connector-curvature="0" />
</svg>
